<svg xmlns="http://www.w3.org/2000/svg" viewBox="0 0 989 823" width="989" height="823">
	<defs>
		<linearGradient id="grd1" gradientUnits="userSpaceOnUse"  x1="527.2" y1="613.421" x2="527.2" y2="195">
			<stop offset="0" stop-color="#ff3e7d"  />
			<stop offset="1" stop-color="#ffb882"  />
		</linearGradient>
		<linearGradient id="grd2" gradientUnits="userSpaceOnUse"  x1="651.622" y1="357.022" x2="651.622" y2="0.163">
			<stop offset="0" stop-color="#ff3e7d"  />
			<stop offset="1" stop-color="#ffb882"  />
		</linearGradient>
		<linearGradient id="grd3" gradientUnits="userSpaceOnUse"  x1="331.104" y1="822.559" x2="331.104" y2="353.953">
			<stop offset="0" stop-color="#ff3e7d"  />
			<stop offset="1" stop-color="#ffb882"  />
		</linearGradient>
	</defs>
	<style>
		tspan { white-space:pre }
		.shp0 { fill: url(#grd1) } 
		.shp1 { fill: url(#grd2) } 
		.shp2 { fill: url(#grd3) } 
	</style>
	<g id="Layer">
		<path id="Layer" fill-rule="evenodd" class="shp0" d="M676.4 378.08L676.4 456.51C676.4 543.1 609.45 613.42 527.2 613.42C444.91 613.42 378 543.06 378 456.51L378 378.08L676.4 378.08ZM651.48 456.51L651.52 404.21L402.88 404.21L402.88 456.51C402.88 528.63 458.69 587.25 527.2 587.25C595.71 587.25 651.48 528.63 651.48 456.51ZM489.9 509.2L489.9 482.69C489.9 461 506.61 443.41 527.2 443.41C547.79 443.41 564.5 461.04 564.5 482.69L564.5 509.16C564.34 530.63 547.67 548.01 527.2 548.01C506.73 548.01 490.06 530.63 489.9 509.2ZM514.78 508.82C514.78 516.03 520.31 521.92 527.2 521.92C534.01 521.92 539.62 516.03 539.62 508.82L539.62 482.69C539.62 475.47 534.05 469.58 527.2 469.58C520.35 469.58 514.78 475.47 514.78 482.69L514.78 508.82ZM452.56 295.51L452.6 351.87L427.72 351.87L427.72 295.51C427.72 240.09 472.35 195 527.2 195C582.01 195 626.68 240.09 626.68 295.51L626.68 351.87L601.8 351.87L601.8 295.51C601.8 254.48 568.39 221.13 527.2 221.13C486.01 221.13 452.56 254.52 452.56 295.51Z" />
	</g>
	<g id="Layer">
		<path id="Layer" class="shp1" d="M988.42 108.26L935.34 95.86L905.78 222.01C897.09 201.89 886.47 182.36 873.86 163.55C778.76 21.21 601.62 -33.36 447.23 20.62C418.46 30.66 390.41 44.57 363.85 62.3C346.13 74.17 329.78 87.27 314.83 101.47L356.56 152.15C369.69 139.26 384.33 127.42 400.19 116.77C423.39 101.3 447.86 89.43 473.12 81.06C599 39.09 742.2 84.24 819.48 199.85C836.91 225.99 849.79 253.75 858.22 282.41L707.08 245.48L693.53 298.22L929.72 357.02L930.16 355.15L930.43 355.25L933.84 340.78L943.23 304.19L942.47 304L988.42 108.26Z" />
		<path id="Layer" class="shp2" d="M580.52 724.65C554.87 736.47 528.63 744.14 502.26 747.86C370.77 766.6 238.26 687.78 183.51 546.76C171.17 514.88 163.6 482.21 160.57 449.51L302.39 521.13L325.39 467.06L103.97 353.95L103.19 355.88L102.95 355.72L96.94 370.62L80.99 408.14L81.7 408.5L0.6 610.11L50.51 634.64L102.73 504.7C107.55 528.14 114.44 551.56 123.38 574.5C190.75 748.12 354.89 844.25 516.59 818.43C546.73 813.64 576.85 804.53 606.22 790.97C625.82 781.88 644.31 771.18 661.61 758.99L629.89 695.52C614.54 706.81 598.1 716.59 580.52 724.65Z" />
	</g>
</svg>